<?xml version="1.0" encoding="UTF-8" standalone="no"?>
<svg
   xmlns:dc="http://purl.org/dc/elements/1.1/"
   xmlns:cc="http://creativecommons.org/ns#"
   xmlns:rdf="http://www.w3.org/1999/02/22-rdf-syntax-ns#"
   xmlns:svg="http://www.w3.org/2000/svg"
   xmlns="http://www.w3.org/2000/svg"
   viewBox="0 0 555.92915 227.42689"
   height="60.173363mm"
   width="147.08958mm"
   id="svg2"
   version="1.1">
  <metadata
     id="metadata8">
    <rdf:RDF>
      <cc:Work
         rdf:about="">
        <dc:format>image/svg+xml</dc:format>
        <dc:type
           rdf:resource="http://purl.org/dc/dcmitype/StillImage" />
        <dc:title />
      </cc:Work>
    </rdf:RDF>
  </metadata>
  <defs
     id="defs6">
    <marker
       style="overflow:visible"
       id="marker8276"
       refX="0"
       refY="0"
       orient="auto">
      <path
         transform="scale(-0.6)"
         d="M 8.7185878,4.0337352 -2.2072895,0.01601326 8.7185884,-4.0017078 c -1.7454984,2.3720609 -1.7354408,5.6174519 -6e-7,8.035443 z"
         style="fill:#000000;fill-opacity:1;fill-rule:evenodd;stroke:#000000;stroke-width:0.625;stroke-linejoin:round;stroke-opacity:1"
         id="path8274" />
    </marker>
    <marker
       style="overflow:visible"
       id="marker7064"
       refX="0"
       refY="0"
       orient="auto">
      <path
         transform="scale(-0.6)"
         d="M 8.7185878,4.0337352 -2.2072895,0.01601326 8.7185884,-4.0017078 c -1.7454984,2.3720609 -1.7354408,5.6174519 -6e-7,8.035443 z"
         style="fill:#000000;fill-opacity:1;fill-rule:evenodd;stroke:#000000;stroke-width:0.625;stroke-linejoin:round;stroke-opacity:1"
         id="path7062" />
    </marker>
    <marker
       style="overflow:visible"
       id="marker5888"
       refX="0"
       refY="0"
       orient="auto">
      <path
         transform="scale(-0.6)"
         d="M 8.7185878,4.0337352 -2.2072895,0.01601326 8.7185884,-4.0017078 c -1.7454984,2.3720609 -1.7354408,5.6174519 -6e-7,8.035443 z"
         style="fill:#000000;fill-opacity:1;fill-rule:evenodd;stroke:#000000;stroke-width:0.625;stroke-linejoin:round;stroke-opacity:1"
         id="path5886" />
    </marker>
    <marker
       style="overflow:visible"
       id="marker5845"
       refX="0"
       refY="0"
       orient="auto">
      <path
         transform="scale(-0.6)"
         d="M 8.7185878,4.0337352 -2.2072895,0.01601326 8.7185884,-4.0017078 c -1.7454984,2.3720609 -1.7354408,5.6174519 -6e-7,8.035443 z"
         style="fill:#000000;fill-opacity:1;fill-rule:evenodd;stroke:#000000;stroke-width:0.625;stroke-linejoin:round;stroke-opacity:1"
         id="path5843" />
    </marker>
    <marker
       style="overflow:visible"
       id="marker5115"
       refX="0"
       refY="0"
       orient="auto">
      <path
         transform="scale(-0.6)"
         d="M 8.7185878,4.0337352 -2.2072895,0.01601326 8.7185884,-4.0017078 c -1.7454984,2.3720609 -1.7354408,5.6174519 -6e-7,8.035443 z"
         style="fill:#000000;fill-opacity:1;fill-rule:evenodd;stroke:#000000;stroke-width:0.625;stroke-linejoin:round;stroke-opacity:1"
         id="path5113" />
    </marker>
    <marker
       orient="auto"
       refY="0"
       refX="0"
       id="marker4863"
       style="overflow:visible">
      <path
         id="path4861"
         style="fill:#000000;fill-opacity:1;fill-rule:evenodd;stroke:#000000;stroke-width:0.625;stroke-linejoin:round;stroke-opacity:1"
         d="M 8.7185878,4.0337352 -2.2072895,0.01601326 8.7185884,-4.0017078 c -1.7454984,2.3720609 -1.7354408,5.6174519 -6e-7,8.035443 z"
         transform="scale(-0.6)" />
    </marker>
    <marker
       style="overflow:visible"
       id="Arrow2Mend"
       refX="0"
       refY="0"
       orient="auto">
      <path
         transform="scale(-0.6)"
         d="M 8.7185878,4.0337352 -2.2072895,0.01601326 8.7185884,-4.0017078 c -1.7454984,2.3720609 -1.7354408,5.6174519 -6e-7,8.035443 z"
         style="fill:#000000;fill-opacity:1;fill-rule:evenodd;stroke:#000000;stroke-width:0.625;stroke-linejoin:round;stroke-opacity:1"
         id="path4604" />
    </marker>
  </defs>
  <g
     id="g1150">
    <path
       id="rect4537"
       d="M 31.665159,19.464567 H 524.26398 c 6.75912,0 12.20059,6.135042 12.20059,13.7557 V 179.31432 c 0,7.62066 -5.44147,13.7557 -12.20059,13.7557 H 31.665159 c -6.759128,0 -12.200592,-6.13504 -12.200592,-13.7557 V 33.220267 c 0,-7.620658 5.441464,-13.7557 12.200592,-13.7557 z"
       style="fill:none;fill-opacity:1;stroke:#4d4d4d;stroke-width:1.13385832;stroke-miterlimit:4;stroke-dasharray:none;paint-order:stroke markers fill" />
    <g
       id="text4571"
       style="font-style:normal;font-weight:normal;font-size:40px;line-height:1.25;font-family:sans-serif;letter-spacing:0px;word-spacing:0px;fill:#4d4d4d;fill-opacity:1;stroke:none"
       aria-label="Programar">
      <path
         id="path47"
         style="font-style:normal;font-variant:normal;font-weight:bold;font-stretch:normal;font-size:12px;font-family:'Fira Sans';-inkscape-font-specification:'Fira Sans Bold';fill:#4d4d4d"
         d="m 34.179979,197.71716 h -2.688 v 8.316 h 1.968 v -2.772 h 0.9 c 1.92,0 3.288,-0.9 3.288,-2.832 0,-1.824 -1.32,-2.712 -3.468,-2.712 z m 0.012,4.128 h -0.732 v -2.724 h 0.696 c 0.972,0 1.464,0.42 1.464,1.308 0,1.044 -0.54,1.416 -1.428,1.416 z" />
      <path
         id="path49"
         style="font-style:normal;font-variant:normal;font-weight:bold;font-stretch:normal;font-size:12px;font-family:'Fira Sans';-inkscape-font-specification:'Fira Sans Bold';fill:#4d4d4d"
         d="m 41.872916,199.48116 c -0.732,0 -1.356,0.528 -1.644,1.416 l -0.156,-1.236 h -1.656 v 6.372 h 1.896 v -3.156 c 0.204,-0.972 0.528,-1.56 1.32,-1.56 0.216,0 0.372,0.036 0.576,0.084 l 0.3,-1.836 c -0.204,-0.06 -0.396,-0.084 -0.636,-0.084 z" />
      <path
         id="path51"
         style="font-style:normal;font-variant:normal;font-weight:bold;font-stretch:normal;font-size:12px;font-family:'Fira Sans';-inkscape-font-specification:'Fira Sans Bold';fill:#4d4d4d"
         d="m 45.630041,199.45716 c -1.944,0 -3.12,1.344 -3.12,3.384 0,2.148 1.188,3.396 3.12,3.396 1.944,0 3.12,-1.344 3.12,-3.384 0,-2.148 -1.176,-3.396 -3.12,-3.396 z m 0,1.392 c 0.768,0 1.152,0.588 1.152,2.004 0,1.38 -0.384,1.992 -1.152,1.992 -0.768,0 -1.152,-0.588 -1.152,-2.004 0,-1.38 0.384,-1.992 1.152,-1.992 z" />
      <path
         id="path53"
         style="font-style:normal;font-variant:normal;font-weight:bold;font-stretch:normal;font-size:12px;font-family:'Fira Sans';-inkscape-font-specification:'Fira Sans Bold';fill:#4d4d4d"
         d="m 55.301854,198.62916 c -0.768,0.456 -1.584,0.864 -3,0.828 -1.668,0 -2.796,0.888 -2.796,2.328 0,0.828 0.324,1.392 1.14,1.824 -0.456,0.288 -0.756,0.756 -0.756,1.224 0,0.684 0.564,1.26 1.956,1.26 h 0.924 c 0.636,0 0.912,0.252 0.912,0.624 0,0.408 -0.264,0.72 -1.38,0.72 -1.152,0 -1.392,-0.24 -1.392,-0.792 h -1.704 c 0,1.26 0.636,2.052 3.048,2.052 2.184,0 3.336,-0.804 3.336,-2.112 0,-1.068 -0.948,-1.848 -2.436,-1.848 h -0.96 c -0.612,0 -0.696,-0.192 -0.696,-0.384 0,-0.144 0.072,-0.288 0.204,-0.36 0.228,0.048 0.468,0.072 0.732,0.072 1.656,0 2.676,-0.9 2.676,-2.136 0,-0.828 -0.396,-1.296 -1.2,-1.644 0.804,0 1.392,-0.072 1.836,-0.252 z m -2.952,2.076 c 0.636,0 0.96,0.324 0.96,1.032 0,0.732 -0.336,1.104 -0.96,1.104 -0.576,0 -0.96,-0.384 -0.96,-1.08 0,-0.66 0.372,-1.056 0.96,-1.056 z" />
      <path
         id="path55"
         style="font-style:normal;font-variant:normal;font-weight:bold;font-stretch:normal;font-size:12px;font-family:'Fira Sans';-inkscape-font-specification:'Fira Sans Bold';fill:#4d4d4d"
         d="m 59.943229,199.48116 c -0.732,0 -1.356,0.528 -1.644,1.416 l -0.156,-1.236 h -1.656 v 6.372 h 1.896 v -3.156 c 0.204,-0.972 0.528,-1.56 1.32,-1.56 0.216,0 0.372,0.036 0.576,0.084 l 0.3,-1.836 c -0.204,-0.06 -0.396,-0.084 -0.636,-0.084 z" />
      <path
         id="path57"
         style="font-style:normal;font-variant:normal;font-weight:bold;font-stretch:normal;font-size:12px;font-family:'Fira Sans';-inkscape-font-specification:'Fira Sans Bold';fill:#4d4d4d"
         d="m 65.934041,204.18516 v -2.472 c 0,-1.476 -0.792,-2.256 -2.64,-2.256 -0.72,0 -1.596,0.168 -2.4,0.468 l 0.432,1.248 c 0.636,-0.216 1.26,-0.336 1.668,-0.336 0.78,0 1.08,0.228 1.08,0.984 v 0.276 h -0.648 c -1.932,0 -2.988,0.756 -2.988,2.148 0,1.164 0.804,1.992 2.076,1.992 0.756,0 1.464,-0.252 1.92,-0.96 0.288,0.636 0.78,0.864 1.536,0.924 l 0.396,-1.236 c -0.3,-0.108 -0.432,-0.288 -0.432,-0.78 z m -2.868,0.696 c -0.468,0 -0.744,-0.3 -0.744,-0.804 0,-0.636 0.42,-0.936 1.284,-0.936 h 0.468 v 1.128 c -0.228,0.384 -0.564,0.612 -1.008,0.612 z" />
      <path
         id="path59"
         style="font-style:normal;font-variant:normal;font-weight:bold;font-stretch:normal;font-size:12px;font-family:'Fira Sans';-inkscape-font-specification:'Fira Sans Bold';fill:#4d4d4d"
         d="m 74.499979,199.45716 c -0.816,0 -1.404,0.336 -1.908,1.008 -0.24,-0.648 -0.792,-1.008 -1.5,-1.008 -0.78,0 -1.356,0.324 -1.848,0.948 l -0.132,-0.744 h -1.656 v 6.372 h 1.896 v -4.356 c 0.276,-0.528 0.576,-0.828 0.972,-0.828 0.288,0 0.54,0.18 0.54,0.852 v 4.332 h 1.896 v -4.356 c 0.276,-0.528 0.564,-0.828 0.972,-0.828 0.288,0 0.54,0.18 0.54,0.852 v 4.332 h 1.896 v -4.656 c 0,-1.212 -0.684,-1.92 -1.668,-1.92 z" />
      <path
         id="path61"
         style="font-style:normal;font-variant:normal;font-weight:bold;font-stretch:normal;font-size:12px;font-family:'Fira Sans';-inkscape-font-specification:'Fira Sans Bold';fill:#4d4d4d"
         d="m 82.668416,204.18516 v -2.472 c 0,-1.476 -0.792,-2.256 -2.64,-2.256 -0.72,0 -1.596,0.168 -2.4,0.468 l 0.432,1.248 c 0.636,-0.216 1.26,-0.336 1.668,-0.336 0.78,0 1.08,0.228 1.08,0.984 v 0.276 h -0.648 c -1.932,0 -2.988,0.756 -2.988,2.148 0,1.164 0.804,1.992 2.076,1.992 0.756,0 1.464,-0.252 1.92,-0.96 0.288,0.636 0.78,0.864 1.536,0.924 l 0.396,-1.236 c -0.3,-0.108 -0.432,-0.288 -0.432,-0.78 z m -2.868,0.696 c -0.468,0 -0.744,-0.3 -0.744,-0.804 0,-0.636 0.42,-0.936 1.284,-0.936 h 0.468 v 1.128 c -0.228,0.384 -0.564,0.612 -1.008,0.612 z" />
      <path
         id="path63"
         style="font-style:normal;font-variant:normal;font-weight:bold;font-stretch:normal;font-size:12px;font-family:'Fira Sans';-inkscape-font-specification:'Fira Sans Bold';fill:#4d4d4d"
         d="m 87.646354,199.48116 c -0.732,0 -1.356,0.528 -1.644,1.416 l -0.156,-1.236 h -1.656 v 6.372 h 1.896 v -3.156 c 0.204,-0.972 0.528,-1.56 1.32,-1.56 0.216,0 0.372,0.036 0.576,0.084 l 0.3,-1.836 c -0.204,-0.06 -0.396,-0.084 -0.636,-0.084 z" />
    </g>
  </g>
  <g
     transform="translate(9.6809202)"
     id="g1145">
    <path
       style="fill:none;stroke:#000000;stroke-width:1.20000005;stroke-linecap:butt;stroke-linejoin:miter;stroke-miterlimit:4;stroke-dasharray:none;stroke-opacity:1;marker-end:url(#marker5115)"
       d="m 381.70302,98.896716 h 30.31084"
       id="path5111" />
    <path
       id="rect4539"
       d="m 191.57838,40.164436 h 182.7749 c 4.15384,0 7.49792,4.402545 7.49792,9.871176 V 154.87361 c 0,5.46863 -3.34408,9.87118 -7.49792,9.87118 h -182.7749 c -4.15385,0 -7.49792,-4.40255 -7.49792,-9.87118 V 50.035612 c 0,-5.468631 3.34407,-9.871176 7.49792,-9.871176 z"
       style="fill:#ebebeb;fill-opacity:1;stroke:none;stroke-width:0.59407002;stroke-miterlimit:4;stroke-dasharray:none;paint-order:stroke markers fill" />
    <g
       id="text4543"
       style="font-style:normal;font-weight:normal;font-size:40px;line-height:1.25;font-family:sans-serif;letter-spacing:0px;word-spacing:0px;fill:#000000;fill-opacity:1;stroke:none"
       aria-label="Importar">
      <path
         id="path67"
         style="font-style:normal;font-variant:normal;font-weight:normal;font-stretch:normal;font-size:14.66666698px;font-family:'Fira Sans';-inkscape-font-specification:'Fira Sans'"
         d="m 46.903556,94.891683 h -1.393333 v 10.105337 h 1.393333 z" />
      <path
         id="path69"
         style="font-style:normal;font-variant:normal;font-weight:normal;font-stretch:normal;font-size:14.66666698px;font-family:'Fira Sans';-inkscape-font-specification:'Fira Sans'"
         d="m 57.521077,97.091683 c -1.041333,0 -1.745333,0.557334 -2.302666,1.393334 -0.293334,-0.88 -0.997334,-1.393334 -1.950667,-1.393334 -1.012,0 -1.716,0.528 -2.229333,1.305334 l -0.117334,-1.129334 h -1.158666 v 7.729337 h 1.349333 v -5.485337 c 0.513333,-0.821333 0.982667,-1.364 1.818667,-1.364 0.586666,0 1.085333,0.337334 1.085333,1.496 v 5.353337 h 1.349333 v -5.485337 c 0.528,-0.821333 0.982667,-1.364 1.818667,-1.364 0.586667,0 1.085333,0.337334 1.085333,1.496 v 5.353337 h 1.349334 v -5.544003 c 0,-1.452 -0.836,-2.361334 -2.097334,-2.361334 z" />
      <path
         id="path71"
         style="font-style:normal;font-variant:normal;font-weight:normal;font-stretch:normal;font-size:14.66666698px;font-family:'Fira Sans';-inkscape-font-specification:'Fira Sans'"
         d="m 65.887266,97.091683 c -0.88,0 -1.716,0.425334 -2.288,1.217334 l -0.102667,-1.041334 h -1.158666 v 10.853337 l 1.349333,-0.16134 v -3.66666 c 0.498667,0.60133 1.188,0.88 2.024,0.88 1.994667,0 3.036,-1.70134 3.036,-4.048 0,-2.43467 -0.806667,-4.033337 -2.86,-4.033337 z m -0.498667,6.981337 c -0.704,0 -1.305333,-0.33734 -1.701333,-0.93867 v -3.769333 c 0.410667,-0.616 1.041333,-1.202667 1.862667,-1.202667 1.158666,0 1.745333,0.953333 1.745333,2.96267 0,2.024 -0.674667,2.948 -1.906667,2.948 z" />
      <path
         id="path73"
         style="font-style:normal;font-variant:normal;font-weight:normal;font-stretch:normal;font-size:14.66666698px;font-family:'Fira Sans';-inkscape-font-specification:'Fira Sans'"
         d="m 73.950267,97.091683 c -2.200001,0 -3.461334,1.657334 -3.461334,4.047997 0,2.44934 1.246667,4.03334 3.446667,4.03334 2.185333,0 3.446667,-1.65734 3.446667,-4.048 0,-2.449337 -1.232,-4.033337 -3.432,-4.033337 z m 0,1.085334 c 1.276,0 1.98,0.938666 1.98,2.948003 0,2.024 -0.704,2.96266 -1.994667,2.96266 -1.290667,0 -1.994667,-0.93866 -1.994667,-2.948 0,-2.023997 0.718667,-2.962663 2.009334,-2.962663 z" />
      <path
         id="path75"
         style="font-style:normal;font-variant:normal;font-weight:normal;font-stretch:normal;font-size:14.66666698px;font-family:'Fira Sans';-inkscape-font-specification:'Fira Sans'"
         d="m 82.970037,97.091683 c -0.938667,0 -1.657334,0.586667 -2.068,1.745334 l -0.132,-1.569334 H 79.61137 v 7.729337 h 1.349333 v -4.41467 c 0.322667,-1.481333 0.88,-2.170667 1.848,-2.170667 0.278667,0 0.44,0.02933 0.674667,0.088 l 0.249333,-1.32 c -0.234666,-0.05867 -0.513333,-0.088 -0.762666,-0.088 z" />
      <path
         id="path77"
         style="font-style:normal;font-variant:normal;font-weight:normal;font-stretch:normal;font-size:14.66666698px;font-family:'Fira Sans';-inkscape-font-specification:'Fira Sans'"
         d="m 88.671245,103.75035 c -0.381333,0.20533 -0.689333,0.308 -1.026667,0.308 -0.674666,0 -0.924,-0.36667 -0.924,-1.144 v -4.605333 h 1.686667 l 0.146667,-1.041334 h -1.833334 v -1.906666 l -1.349333,0.161333 v 1.745333 h -1.349333 v 1.041334 h 1.349333 v 4.664003 c 0,1.43733 0.777333,2.2 2.082667,2.2 0.66,0 1.217333,-0.176 1.730666,-0.528 z" />
      <path
         id="path79"
         style="font-style:normal;font-variant:normal;font-weight:normal;font-stretch:normal;font-size:14.66666698px;font-family:'Fira Sans';-inkscape-font-specification:'Fira Sans'"
         d="m 95.674806,103.19302 v -3.53467 c 0,-1.613333 -0.850666,-2.566667 -2.713333,-2.566667 -0.865333,0 -1.716,0.176 -2.669333,0.528 l 0.337333,0.982667 c 0.792,-0.264 1.510667,-0.410667 2.082667,-0.410667 1.070666,0 1.613333,0.410667 1.613333,1.525334 v 0.572003 h -1.188 c -2.156,0 -3.402667,0.89466 -3.402667,2.552 0,1.37866 0.924,2.332 2.464,2.332 0.938667,0 1.76,-0.352 2.302667,-1.15867 0.234667,0.76267 0.733333,1.07067 1.510667,1.15867 l 0.308,-0.93867 c -0.396,-0.14667 -0.645334,-0.36667 -0.645334,-1.04133 z m -3.168,0.968 c -0.88,0 -1.334666,-0.484 -1.334666,-1.39334 0,-1.056 0.718666,-1.584 2.141333,-1.584 h 1.012 v 1.77467 c -0.44,0.80667 -1.026667,1.20267 -1.818667,1.20267 z" />
      <path
         id="path81"
         style="font-style:normal;font-variant:normal;font-weight:normal;font-stretch:normal;font-size:14.66666698px;font-family:'Fira Sans';-inkscape-font-specification:'Fira Sans'"
         d="m 101.81899,97.091683 c -0.93866,0 -1.65733,0.586667 -2.067996,1.745334 l -0.132,-1.569334 h -1.158667 v 7.729337 h 1.349333 v -4.41467 c 0.32267,-1.481333 0.88,-2.170667 1.848,-2.170667 0.27867,0 0.44,0.02933 0.67467,0.088 l 0.24933,-1.32 c -0.23467,-0.05867 -0.51333,-0.088 -0.76267,-0.088 z" />
    </g>
    <g
       id="text4547"
       style="font-style:normal;font-weight:normal;font-size:40px;line-height:1.25;font-family:sans-serif;letter-spacing:0px;word-spacing:0px;fill:#000000;fill-opacity:1;stroke:none"
       aria-label="Ordenar">
      <path
         id="path84"
         style="font-style:normal;font-variant:normal;font-weight:normal;font-stretch:normal;font-size:14.66666698px;font-family:'Fira Sans';-inkscape-font-specification:'Fira Sans'"
         d="m 133.41732,94.715683 c -2.52267,0 -4.268,1.921334 -4.268,5.250667 0,3.388 1.74533,5.20667 4.268,5.20667 2.53733,0 4.268,-1.87734 4.268,-5.221337 0,-3.402666 -1.73067,-5.236 -4.268,-5.236 z m 0,1.144 c 1.73066,0 2.78666,1.188 2.78666,4.092 0,2.933337 -1.08533,4.077337 -2.78666,4.077337 -1.64267,0 -2.78667,-1.144 -2.78667,-4.06267 0,-2.918667 1.1,-4.106667 2.78667,-4.106667 z" />
      <path
         id="path86"
         style="font-style:normal;font-variant:normal;font-weight:normal;font-stretch:normal;font-size:14.66666698px;font-family:'Fira Sans';-inkscape-font-specification:'Fira Sans'"
         d="m 143.23528,97.091683 c -0.93867,0 -1.65734,0.586667 -2.068,1.745334 l -0.132,-1.569334 h -1.15867 v 7.729337 h 1.34933 v -4.41467 c 0.32267,-1.481333 0.88,-2.170667 1.848,-2.170667 0.27867,0 0.44,0.02933 0.67467,0.088 l 0.24933,-1.32 c -0.23466,-0.05867 -0.51333,-0.088 -0.76266,-0.088 z" />
      <path
         id="path88"
         style="font-style:normal;font-variant:normal;font-weight:normal;font-stretch:normal;font-size:14.66666698px;font-family:'Fira Sans';-inkscape-font-specification:'Fira Sans'"
         d="m 149.75346,93.997017 v 4.048 c -0.51333,-0.542667 -1.17333,-0.953334 -2.08266,-0.953334 -1.892,0 -3.036,1.716 -3.036,4.077337 0,2.40533 1.04133,4.004 2.91866,4.004 0.95334,0 1.73067,-0.46934 2.22934,-1.24667 l 0.132,1.07067 h 1.188 V 94.15835 Z m -1.90666,10.105333 c -1.11467,0 -1.76,-0.924 -1.76,-2.96267 0,-2.00933 0.71866,-2.97733 1.87733,-2.97733 0.76267,0 1.30533,0.396 1.78933,1.012 v 3.784 c -0.51333,0.71867 -1.04133,1.144 -1.90666,1.144 z" />
      <path
         id="path90"
         style="font-style:normal;font-variant:normal;font-weight:normal;font-stretch:normal;font-size:14.66666698px;font-family:'Fira Sans';-inkscape-font-specification:'Fira Sans'"
         d="m 159.72176,100.90502 c 0,-2.361337 -1.1,-3.813337 -3.18267,-3.813337 -1.99467,0 -3.212,1.716 -3.212,4.121337 0,2.44933 1.26133,3.96 3.41733,3.96 1.07067,0 1.936,-0.36667 2.69867,-0.968 l -0.58667,-0.80667 c -0.67466,0.46933 -1.24666,0.67467 -2.00933,0.67467 -1.11467,0 -1.95067,-0.68934 -2.08267,-2.47867 h 4.928 c 0.0147,-0.176 0.0293,-0.42533 0.0293,-0.68933 z m -1.33467,-0.308 h -3.62267 c 0.10267,-1.716003 0.77734,-2.43467 1.804,-2.43467 1.21734,0 1.81867,0.836 1.81867,2.34667 z" />
      <path
         id="path92"
         style="font-style:normal;font-variant:normal;font-weight:normal;font-stretch:normal;font-size:14.66666698px;font-family:'Fira Sans';-inkscape-font-specification:'Fira Sans'"
         d="m 165.51394,97.091683 c -1.012,0 -1.83333,0.528 -2.36133,1.32 l -0.11733,-1.144 h -1.15867 v 7.729337 h 1.34933 v -5.485337 c 0.51334,-0.821333 1.1,-1.364 1.96534,-1.364 0.748,0 1.21733,0.337334 1.21733,1.496 v 5.353337 h 1.34933 v -5.544003 c 0,-1.466667 -0.82133,-2.361334 -2.244,-2.361334 z" />
      <path
         id="path94"
         style="font-style:normal;font-variant:normal;font-weight:normal;font-stretch:normal;font-size:14.66666698px;font-family:'Fira Sans';-inkscape-font-specification:'Fira Sans'"
         d="m 175.67703,103.19302 v -3.53467 c 0,-1.613333 -0.85067,-2.566667 -2.71334,-2.566667 -0.86533,0 -1.716,0.176 -2.66933,0.528 l 0.33733,0.982667 c 0.792,-0.264 1.51067,-0.410667 2.08267,-0.410667 1.07067,0 1.61333,0.410667 1.61333,1.525334 v 0.572003 h -1.188 c -2.156,0 -3.40266,0.89466 -3.40266,2.552 0,1.37866 0.924,2.332 2.464,2.332 0.93866,0 1.76,-0.352 2.30266,-1.15867 0.23467,0.76267 0.73334,1.07067 1.51067,1.15867 l 0.308,-0.93867 c -0.396,-0.14667 -0.64533,-0.36667 -0.64533,-1.04133 z m -3.168,0.968 c -0.88,0 -1.33467,-0.484 -1.33467,-1.39334 0,-1.056 0.71867,-1.584 2.14133,-1.584 h 1.012 v 1.77467 c -0.44,0.80667 -1.02666,1.20267 -1.81866,1.20267 z" />
      <path
         id="path96"
         style="font-style:normal;font-variant:normal;font-weight:normal;font-stretch:normal;font-size:14.66666698px;font-family:'Fira Sans';-inkscape-font-specification:'Fira Sans'"
         d="m 181.82121,97.091683 c -0.93866,0 -1.65733,0.586667 -2.068,1.745334 l -0.132,-1.569334 h -1.15866 v 7.729337 h 1.34933 v -4.41467 c 0.32267,-1.481333 0.88,-2.170667 1.848,-2.170667 0.27867,0 0.44,0.02933 0.67467,0.088 l 0.24933,-1.32 c -0.23467,-0.05867 -0.51333,-0.088 -0.76267,-0.088 z" />
    </g>
    <g
       id="text4551"
       style="font-style:normal;font-weight:normal;font-size:40px;line-height:1.25;font-family:sans-serif;letter-spacing:0px;word-spacing:0px;fill:#000000;fill-opacity:1;stroke:none"
       aria-label="Transformar">
      <path
         id="path99"
         style="font-style:normal;font-variant:normal;font-weight:normal;font-stretch:normal;font-size:14.66666698px;font-family:'Fira Sans';-inkscape-font-specification:'Fira Sans';fill:#0597fe"
         d="m 216.37812,94.891683 h -7.216 v 1.188 h 2.87467 v 8.917337 h 1.39333 v -8.917337 h 2.80134 z" />
      <path
         id="path101"
         style="font-style:normal;font-variant:normal;font-weight:normal;font-stretch:normal;font-size:14.66666698px;font-family:'Fira Sans';-inkscape-font-specification:'Fira Sans';fill:#0597fe"
         d="m 220.85558,97.091683 c -0.93866,0 -1.65733,0.586667 -2.068,1.745334 l -0.132,-1.569334 h -1.15866 v 7.729337 h 1.34933 v -4.41467 c 0.32267,-1.481333 0.88,-2.170667 1.848,-2.170667 0.27867,0 0.44,0.02933 0.67467,0.088 l 0.24933,-1.32 c -0.23467,-0.05867 -0.51333,-0.088 -0.76267,-0.088 z" />
      <path
         id="path103"
         style="font-style:normal;font-variant:normal;font-weight:normal;font-stretch:normal;font-size:14.66666698px;font-family:'Fira Sans';-inkscape-font-specification:'Fira Sans';fill:#0597fe"
         d="m 227.85983,103.19302 v -3.53467 c 0,-1.613333 -0.85066,-2.566667 -2.71333,-2.566667 -0.86533,0 -1.716,0.176 -2.66933,0.528 l 0.33733,0.982667 c 0.792,-0.264 1.51067,-0.410667 2.08267,-0.410667 1.07066,0 1.61333,0.410667 1.61333,1.525334 v 0.572003 h -1.188 c -2.156,0 -3.40267,0.89466 -3.40267,2.552 0,1.37866 0.924,2.332 2.464,2.332 0.93867,0 1.76,-0.352 2.30267,-1.15867 0.23467,0.76267 0.73333,1.07067 1.51067,1.15867 l 0.308,-0.93867 c -0.396,-0.14667 -0.64534,-0.36667 -0.64534,-1.04133 z m -3.168,0.968 c -0.88,0 -1.33466,-0.484 -1.33466,-1.39334 0,-1.056 0.71866,-1.584 2.14133,-1.584 h 1.012 v 1.77467 c -0.44,0.80667 -1.02667,1.20267 -1.81867,1.20267 z" />
      <path
         id="path105"
         style="font-style:normal;font-variant:normal;font-weight:normal;font-stretch:normal;font-size:14.66666698px;font-family:'Fira Sans';-inkscape-font-specification:'Fira Sans';fill:#0597fe"
         d="m 234.28269,97.091683 c -1.012,0 -1.83334,0.528 -2.36134,1.32 l -0.11733,-1.144 h -1.15867 v 7.729337 h 1.34934 v -5.485337 c 0.51333,-0.821333 1.1,-1.364 1.96533,-1.364 0.748,0 1.21733,0.337334 1.21733,1.496 v 5.353337 h 1.34934 v -5.544003 c 0,-1.466667 -0.82134,-2.361334 -2.244,-2.361334 z" />
      <path
         id="path107"
         style="font-style:normal;font-variant:normal;font-weight:normal;font-stretch:normal;font-size:14.66666698px;font-family:'Fira Sans';-inkscape-font-specification:'Fira Sans';fill:#0597fe"
         d="m 241.33644,97.091683 c -1.59867,0 -2.78667,0.894667 -2.78667,2.126667 0,1.08533 0.66,1.804 2.332,2.244 1.496,0.396 1.87733,0.68933 1.87733,1.452 0,0.73333 -0.64533,1.17333 -1.65733,1.17333 -0.836,0 -1.55467,-0.27866 -2.17067,-0.748 l -0.71866,0.82134 c 0.67466,0.58666 1.61333,1.012 2.91866,1.012 1.56934,0 3.05067,-0.73334 3.05067,-2.34667 0,-1.34933 -0.93867,-1.99467 -2.56667,-2.40533 -1.24666,-0.32267 -1.65733,-0.616003 -1.65733,-1.24667 0,-0.616 0.54267,-1.012 1.42267,-1.012 0.71866,0 1.32,0.22 2.00933,0.66 l 0.572,-0.850667 c -0.73333,-0.557333 -1.54,-0.88 -2.62533,-0.88 z" />
      <path
         id="path109"
         style="font-style:normal;font-variant:normal;font-weight:normal;font-stretch:normal;font-size:14.66666698px;font-family:'Fira Sans';-inkscape-font-specification:'Fira Sans';fill:#0597fe"
         d="m 248.71079,95.08235 c 0.396,0 0.85067,0.07333 1.34933,0.293333 l 0.42534,-0.982666 c -0.616,-0.264 -1.11467,-0.396 -1.848,-0.396 -1.56934,0 -2.42,0.924 -2.42,2.214666 v 1.056 h -1.37867 v 1.041334 h 1.37867 v 6.688003 h 1.34933 v -6.688003 h 1.73067 l 0.14666,-1.041334 h -1.87733 v -1.070666 c 0,-0.748 0.29333,-1.114667 1.144,-1.114667 z" />
      <path
         id="path111"
         style="font-style:normal;font-variant:normal;font-weight:normal;font-stretch:normal;font-size:14.66666698px;font-family:'Fira Sans';-inkscape-font-specification:'Fira Sans';fill:#0597fe"
         d="m 253.77331,97.091683 c -2.2,0 -3.46133,1.657334 -3.46133,4.047997 0,2.44934 1.24667,4.03334 3.44667,4.03334 2.18533,0 3.44666,-1.65734 3.44666,-4.048 0,-2.449337 -1.232,-4.033337 -3.432,-4.033337 z m 0,1.085334 c 1.276,0 1.98,0.938666 1.98,2.948003 0,2.024 -0.704,2.96266 -1.99466,2.96266 -1.29067,0 -1.99467,-0.93866 -1.99467,-2.948 0,-2.023997 0.71867,-2.962663 2.00933,-2.962663 z" />
      <path
         id="path113"
         style="font-style:normal;font-variant:normal;font-weight:normal;font-stretch:normal;font-size:14.66666698px;font-family:'Fira Sans';-inkscape-font-specification:'Fira Sans';fill:#0597fe"
         d="m 262.79308,97.091683 c -0.93866,0 -1.65733,0.586667 -2.068,1.745334 l -0.132,-1.569334 h -1.15866 v 7.729337 h 1.34933 v -4.41467 c 0.32267,-1.481333 0.88,-2.170667 1.848,-2.170667 0.27867,0 0.44,0.02933 0.67467,0.088 l 0.24933,-1.32 c -0.23467,-0.05867 -0.51333,-0.088 -0.76267,-0.088 z" />
      <path
         id="path115"
         style="font-style:normal;font-variant:normal;font-weight:normal;font-stretch:normal;font-size:14.66666698px;font-family:'Fira Sans';-inkscape-font-specification:'Fira Sans';fill:#0597fe"
         d="m 272.86496,97.091683 c -1.04133,0 -1.74533,0.557334 -2.30267,1.393334 -0.29333,-0.88 -0.99733,-1.393334 -1.95066,-1.393334 -1.012,0 -1.716,0.528 -2.22934,1.305334 l -0.11733,-1.129334 h -1.15867 v 7.729337 h 1.34934 v -5.485337 c 0.51333,-0.821333 0.98266,-1.364 1.81866,-1.364 0.58667,0 1.08534,0.337334 1.08534,1.496 v 5.353337 h 1.34933 v -5.485337 c 0.528,-0.821333 0.98267,-1.364 1.81867,-1.364 0.58666,0 1.08533,0.337334 1.08533,1.496 v 5.353337 h 1.34933 v -5.544003 c 0,-1.452 -0.836,-2.361334 -2.09733,-2.361334 z" />
      <path
         id="path117"
         style="font-style:normal;font-variant:normal;font-weight:normal;font-stretch:normal;font-size:14.66666698px;font-family:'Fira Sans';-inkscape-font-specification:'Fira Sans';fill:#0597fe"
         d="m 282.88848,103.19302 v -3.53467 c 0,-1.613333 -0.85066,-2.566667 -2.71333,-2.566667 -0.86533,0 -1.716,0.176 -2.66933,0.528 l 0.33733,0.982667 c 0.792,-0.264 1.51067,-0.410667 2.08267,-0.410667 1.07066,0 1.61333,0.410667 1.61333,1.525334 v 0.572003 h -1.188 c -2.156,0 -3.40267,0.89466 -3.40267,2.552 0,1.37866 0.924,2.332 2.464,2.332 0.93867,0 1.76,-0.352 2.30267,-1.15867 0.23467,0.76267 0.73333,1.07067 1.51067,1.15867 l 0.308,-0.93867 c -0.396,-0.14667 -0.64534,-0.36667 -0.64534,-1.04133 z m -3.168,0.968 c -0.88,0 -1.33466,-0.484 -1.33466,-1.39334 0,-1.056 0.71866,-1.584 2.14133,-1.584 h 1.012 v 1.77467 c -0.44,0.80667 -1.02667,1.20267 -1.81867,1.20267 z" />
      <path
         id="path119"
         style="font-style:normal;font-variant:normal;font-weight:normal;font-stretch:normal;font-size:14.66666698px;font-family:'Fira Sans';-inkscape-font-specification:'Fira Sans';fill:#0597fe"
         d="m 289.03267,97.091683 c -0.93867,0 -1.65733,0.586667 -2.068,1.745334 l -0.132,-1.569334 H 285.674 v 7.729337 h 1.34934 v -4.41467 c 0.32266,-1.481333 0.88,-2.170667 1.848,-2.170667 0.27866,0 0.44,0.02933 0.67466,0.088 l 0.24934,-1.32 c -0.23467,-0.05867 -0.51334,-0.088 -0.76267,-0.088 z" />
    </g>
    <g
       id="text4555"
       style="font-style:normal;font-weight:normal;font-size:40px;line-height:1.25;font-family:sans-serif;letter-spacing:0px;word-spacing:0px;fill:#000000;fill-opacity:1;stroke:none"
       aria-label="Visualizar">
      <path
         id="path122"
         style="font-style:normal;font-variant:normal;font-weight:normal;font-stretch:normal;font-size:14.66666698px;font-family:'Fira Sans';-inkscape-font-specification:'Fira Sans';fill:#0597fe"
         d="m 314.80415,49.902002 h -1.408 l -2.53733,8.594667 -2.53733,-8.594667 h -1.496 l 3.256,10.105334 h 1.496 z" />
      <path
         id="path124"
         style="font-style:normal;font-variant:normal;font-weight:normal;font-stretch:normal;font-size:14.66666698px;font-family:'Fira Sans';-inkscape-font-specification:'Fira Sans';fill:#0597fe"
         d="m 316.95488,48.567335 c -0.55733,0 -0.93866,0.396 -0.93866,0.924 0,0.513334 0.38133,0.909334 0.93866,0.909334 0.572,0 0.95334,-0.396 0.95334,-0.909334 0,-0.528 -0.38134,-0.924 -0.95334,-0.924 z m 0.68934,3.710667 h -1.34934 v 7.729334 h 1.34934 z" />
      <path
         id="path126"
         style="font-style:normal;font-variant:normal;font-weight:normal;font-stretch:normal;font-size:14.66666698px;font-family:'Fira Sans';-inkscape-font-specification:'Fira Sans';fill:#0597fe"
         d="m 322.51722,52.102002 c -1.59867,0 -2.78667,0.894667 -2.78667,2.126667 0,1.085333 0.66,1.804 2.332,2.244 1.496,0.396 1.87733,0.689333 1.87733,1.452 0,0.733333 -0.64533,1.173333 -1.65733,1.173333 -0.836,0 -1.55467,-0.278666 -2.17067,-0.748 l -0.71866,0.821334 c 0.67466,0.586666 1.61333,1.012 2.91866,1.012 1.56934,0 3.05067,-0.733334 3.05067,-2.346667 0,-1.349333 -0.93867,-1.994667 -2.56667,-2.405333 -1.24666,-0.322667 -1.65733,-0.616 -1.65733,-1.246667 0,-0.616 0.54267,-1.012 1.42267,-1.012 0.71866,0 1.32,0.22 2.00933,0.66 l 0.572,-0.850667 c -0.73333,-0.557333 -1.54,-0.88 -2.62533,-0.88 z" />
      <path
         id="path128"
         style="font-style:normal;font-variant:normal;font-weight:normal;font-stretch:normal;font-size:14.66666698px;font-family:'Fira Sans';-inkscape-font-specification:'Fira Sans';fill:#0597fe"
         d="m 333.01557,52.278002 h -1.34933 v 5.514667 c -0.46933,0.777333 -1.1,1.334667 -1.936,1.334667 -0.836,0 -1.188,-0.396 -1.188,-1.452 v -5.397334 h -1.34933 v 5.544 c 0,1.510667 0.80666,2.361334 2.156,2.361334 1.1,0 1.81866,-0.44 2.40533,-1.378667 l 0.10267,1.202667 h 1.15866 z" />
      <path
         id="path130"
         style="font-style:normal;font-variant:normal;font-weight:normal;font-stretch:normal;font-size:14.66666698px;font-family:'Fira Sans';-inkscape-font-specification:'Fira Sans';fill:#0597fe"
         d="m 341.00936,58.203336 v -3.534667 c 0,-1.613333 -0.85066,-2.566667 -2.71333,-2.566667 -0.86533,0 -1.716,0.176 -2.66933,0.528 l 0.33733,0.982667 c 0.792,-0.264 1.51067,-0.410667 2.08267,-0.410667 1.07066,0 1.61333,0.410667 1.61333,1.525334 v 0.572 h -1.188 c -2.156,0 -3.40267,0.894666 -3.40267,2.552 0,1.378666 0.924,2.332 2.464,2.332 0.93867,0 1.76,-0.352 2.30267,-1.158667 0.23467,0.762667 0.73333,1.070667 1.51067,1.158667 l 0.308,-0.938667 c -0.396,-0.146667 -0.64534,-0.366667 -0.64534,-1.041333 z m -3.168,0.968 c -0.88,0 -1.33466,-0.484 -1.33466,-1.393334 0,-1.056 0.71866,-1.584 2.14133,-1.584 h 1.012 v 1.774667 c -0.44,0.806667 -1.02667,1.202667 -1.81867,1.202667 z" />
      <path
         id="path132"
         style="font-style:normal;font-variant:normal;font-weight:normal;font-stretch:normal;font-size:14.66666698px;font-family:'Fira Sans';-inkscape-font-specification:'Fira Sans';fill:#0597fe"
         d="m 345.19166,60.183336 c 0.396,0 0.77733,-0.102667 1.07066,-0.264 l -0.352,-0.938667 c -0.14666,0.05867 -0.308,0.088 -0.49866,0.088 -0.352,0 -0.484,-0.205333 -0.484,-0.616 v -9.445334 l -1.34934,0.161334 v 9.313333 c 0,1.1 0.63067,1.701334 1.61334,1.701334 z" />
      <path
         id="path134"
         style="font-style:normal;font-variant:normal;font-weight:normal;font-stretch:normal;font-size:14.66666698px;font-family:'Fira Sans';-inkscape-font-specification:'Fira Sans';fill:#0597fe"
         d="m 348.60853,48.567335 c -0.55733,0 -0.93866,0.396 -0.93866,0.924 0,0.513334 0.38133,0.909334 0.93866,0.909334 0.572,0 0.95334,-0.396 0.95334,-0.909334 0,-0.528 -0.38134,-0.924 -0.95334,-0.924 z m 0.68934,3.710667 h -1.34934 v 7.729334 h 1.34934 z" />
      <path
         id="path136"
         style="font-style:normal;font-variant:normal;font-weight:normal;font-stretch:normal;font-size:14.66666698px;font-family:'Fira Sans';-inkscape-font-specification:'Fira Sans';fill:#0597fe"
         d="m 356.60553,52.278002 h -5.22133 v 1.144 h 3.68133 l -4.01866,5.573334 v 1.012 h 5.44133 l 0.16133,-1.129334 h -4.07733 l 4.03333,-5.573333 z" />
      <path
         id="path138"
         style="font-style:normal;font-variant:normal;font-weight:normal;font-stretch:normal;font-size:14.66666698px;font-family:'Fira Sans';-inkscape-font-specification:'Fira Sans';fill:#0597fe"
         d="m 363.4677,58.203336 v -3.534667 c 0,-1.613333 -0.85067,-2.566667 -2.71333,-2.566667 -0.86534,0 -1.716,0.176 -2.66934,0.528 l 0.33734,0.982667 c 0.792,-0.264 1.51066,-0.410667 2.08266,-0.410667 1.07067,0 1.61334,0.410667 1.61334,1.525334 v 0.572 h -1.188 c -2.156,0 -3.40267,0.894666 -3.40267,2.552 0,1.378666 0.924,2.332 2.464,2.332 0.93867,0 1.76,-0.352 2.30267,-1.158667 0.23466,0.762667 0.73333,1.070667 1.51066,1.158667 l 0.308,-0.938667 c -0.396,-0.146667 -0.64533,-0.366667 -0.64533,-1.041333 z m -3.168,0.968 c -0.88,0 -1.33467,-0.484 -1.33467,-1.393334 0,-1.056 0.71867,-1.584 2.14134,-1.584 h 1.012 v 1.774667 c -0.44,0.806667 -1.02667,1.202667 -1.81867,1.202667 z" />
      <path
         id="path140"
         style="font-style:normal;font-variant:normal;font-weight:normal;font-stretch:normal;font-size:14.66666698px;font-family:'Fira Sans';-inkscape-font-specification:'Fira Sans';fill:#0597fe"
         d="m 369.61189,52.102002 c -0.93867,0 -1.65734,0.586667 -2.068,1.745334 l -0.132,-1.569334 h -1.15867 v 7.729334 h 1.34933 v -4.414667 c 0.32267,-1.481333 0.88,-2.170667 1.848,-2.170667 0.27867,0 0.44,0.02933 0.67467,0.088 l 0.24933,-1.32 c -0.23466,-0.05867 -0.51333,-0.088 -0.76266,-0.088 z" />
    </g>
    <g
       id="text4559"
       style="font-style:normal;font-weight:normal;font-size:40px;line-height:1.25;font-family:sans-serif;letter-spacing:0px;word-spacing:0px;fill:#000000;fill-opacity:1;stroke:none"
       aria-label="Modelar">
      <path
         id="path143"
         style="font-style:normal;font-variant:normal;font-weight:normal;font-stretch:normal;font-size:14.66666698px;font-family:'Fira Sans';-inkscape-font-specification:'Fira Sans'"
         d="m 318.69045,136.83121 h -1.892 l -2.024,7.348 -2.12667,-7.348 h -1.87733 l -0.836,10.10533 h 1.32 l 0.33733,-4.45867 c 0.11734,-1.48133 0.19067,-3.05066 0.19067,-4.23866 l 2.30267,7.55333 h 1.30533 l 2.18533,-7.53867 c 0.0147,0.836 0.11734,2.53734 0.24934,4.12134 l 0.352,4.56133 h 1.34933 z" />
      <path
         id="path145"
         style="font-style:normal;font-variant:normal;font-weight:normal;font-stretch:normal;font-size:14.66666698px;font-family:'Fira Sans';-inkscape-font-specification:'Fira Sans'"
         d="m 324.72349,139.03121 c -2.2,0 -3.46133,1.65733 -3.46133,4.048 0,2.44933 1.24666,4.03333 3.44666,4.03333 2.18534,0 3.44667,-1.65733 3.44667,-4.048 0,-2.44933 -1.232,-4.03333 -3.432,-4.03333 z m 0,1.08533 c 1.276,0 1.98,0.93867 1.98,2.948 0,2.024 -0.704,2.96267 -1.99467,2.96267 -1.29066,0 -1.99466,-0.93867 -1.99466,-2.948 0,-2.024 0.71866,-2.96267 2.00933,-2.96267 z" />
      <path
         id="path147"
         style="font-style:normal;font-variant:normal;font-weight:normal;font-stretch:normal;font-size:14.66666698px;font-family:'Fira Sans';-inkscape-font-specification:'Fira Sans'"
         d="m 335.01926,135.93654 v 4.048 c -0.51333,-0.54267 -1.17333,-0.95333 -2.08266,-0.95333 -1.892,0 -3.036,1.716 -3.036,4.07733 0,2.40533 1.04133,4.004 2.91866,4.004 0.95334,0 1.73067,-0.46933 2.22934,-1.24667 l 0.132,1.07067 h 1.188 v -10.83867 z m -1.90666,10.10533 c -1.11467,0 -1.76,-0.924 -1.76,-2.96266 0,-2.00934 0.71866,-2.97734 1.87733,-2.97734 0.76267,0 1.30533,0.396 1.78933,1.012 v 3.784 c -0.51333,0.71867 -1.04133,1.144 -1.90666,1.144 z" />
      <path
         id="path149"
         style="font-style:normal;font-variant:normal;font-weight:normal;font-stretch:normal;font-size:14.66666698px;font-family:'Fira Sans';-inkscape-font-specification:'Fira Sans'"
         d="m 344.98755,142.84454 c 0,-2.36133 -1.1,-3.81333 -3.18266,-3.81333 -1.99467,0 -3.212,1.716 -3.212,4.12133 0,2.44933 1.26133,3.96 3.41733,3.96 1.07067,0 1.936,-0.36667 2.69867,-0.968 l -0.58667,-0.80667 c -0.67467,0.46934 -1.24667,0.67467 -2.00933,0.67467 -1.11467,0 -1.95067,-0.68933 -2.08267,-2.47867 h 4.928 c 0.0147,-0.176 0.0293,-0.42533 0.0293,-0.68933 z m -1.33466,-0.308 h -3.62267 c 0.10267,-1.716 0.77733,-2.43467 1.804,-2.43467 1.21733,0 1.81867,0.836 1.81867,2.34667 z" />
      <path
         id="path151"
         style="font-style:normal;font-variant:normal;font-weight:normal;font-stretch:normal;font-size:14.66666698px;font-family:'Fira Sans';-inkscape-font-specification:'Fira Sans'"
         d="m 348.68241,147.11254 c 0.396,0 0.77733,-0.10267 1.07067,-0.264 l -0.352,-0.93867 c -0.14667,0.0587 -0.308,0.088 -0.49867,0.088 -0.352,0 -0.484,-0.20533 -0.484,-0.616 v -9.44533 l -1.34933,0.16133 v 9.31334 c 0,1.1 0.63066,1.70133 1.61333,1.70133 z" />
      <path
         id="path153"
         style="font-style:normal;font-variant:normal;font-weight:normal;font-stretch:normal;font-size:14.66666698px;font-family:'Fira Sans';-inkscape-font-specification:'Fira Sans'"
         d="m 356.56001,145.13254 v -3.53467 c 0,-1.61333 -0.85066,-2.56666 -2.71333,-2.56666 -0.86533,0 -1.716,0.176 -2.66933,0.528 l 0.33733,0.98266 c 0.792,-0.264 1.51067,-0.41066 2.08267,-0.41066 1.07066,0 1.61333,0.41066 1.61333,1.52533 v 0.572 h -1.188 c -2.156,0 -3.40267,0.89467 -3.40267,2.552 0,1.37867 0.924,2.332 2.464,2.332 0.93867,0 1.76,-0.352 2.30267,-1.15867 0.23467,0.76267 0.73333,1.07067 1.51067,1.15867 l 0.308,-0.93867 c -0.396,-0.14666 -0.64534,-0.36666 -0.64534,-1.04133 z m -3.168,0.968 c -0.88,0 -1.33466,-0.484 -1.33466,-1.39333 0,-1.056 0.71866,-1.584 2.14133,-1.584 h 1.012 v 1.77466 c -0.44,0.80667 -1.02667,1.20267 -1.81867,1.20267 z" />
      <path
         id="path155"
         style="font-style:normal;font-variant:normal;font-weight:normal;font-stretch:normal;font-size:14.66666698px;font-family:'Fira Sans';-inkscape-font-specification:'Fira Sans'"
         d="m 362.7042,139.03121 c -0.93866,0 -1.65733,0.58666 -2.068,1.74533 l -0.132,-1.56933 h -1.15866 v 7.72933 h 1.34933 v -4.41467 c 0.32267,-1.48133 0.88,-2.17066 1.848,-2.17066 0.27867,0 0.44,0.0293 0.67467,0.088 l 0.24933,-1.32 c -0.23467,-0.0587 -0.51333,-0.088 -0.76267,-0.088 z" />
    </g>
    <g
       id="text4563"
       style="font-style:normal;font-weight:normal;font-size:40px;line-height:1.25;font-family:sans-serif;letter-spacing:0px;word-spacing:0px;fill:#000000;fill-opacity:1;stroke:none"
       aria-label="Comunicar">
      <path
         id="path158"
         style="font-style:normal;font-variant:normal;font-weight:normal;font-stretch:normal;font-size:14.66666698px;font-family:'Fira Sans';-inkscape-font-specification:'Fira Sans'"
         d="m 425.34582,94.715676 c -2.288,0 -4.19467,1.804 -4.19467,5.221333 0,3.402671 1.77467,5.236001 4.224,5.236001 1.364,0 2.332,-0.55733 2.88933,-1.12933 l -0.68933,-0.88 c -0.572,0.42533 -1.20267,0.836 -2.156,0.836 -1.56933,0 -2.78667,-1.144 -2.78667,-4.062671 0,-3.050667 1.276,-4.077333 2.80134,-4.077333 0.704,0 1.32,0.234666 1.95066,0.748 l 0.76267,-0.894667 c -0.80667,-0.645333 -1.52533,-0.997333 -2.80133,-0.997333 z" />
      <path
         id="path160"
         style="font-style:normal;font-variant:normal;font-weight:normal;font-stretch:normal;font-size:14.66666698px;font-family:'Fira Sans';-inkscape-font-specification:'Fira Sans'"
         d="m 432.57671,97.091676 c -2.2,0 -3.46133,1.657333 -3.46133,4.048004 0,2.44933 1.24667,4.03333 3.44667,4.03333 2.18533,0 3.44666,-1.65733 3.44666,-4.048 0,-2.449334 -1.232,-4.033334 -3.432,-4.033334 z m 0,1.085333 c 1.276,0 1.98,0.938667 1.98,2.948001 0,2.024 -0.704,2.96267 -1.99466,2.96267 -1.29067,0 -1.99467,-0.93867 -1.99467,-2.948 0,-2.024004 0.71867,-2.962671 2.00933,-2.962671 z" />
      <path
         id="path162"
         style="font-style:normal;font-variant:normal;font-weight:normal;font-stretch:normal;font-size:14.66666698px;font-family:'Fira Sans';-inkscape-font-specification:'Fira Sans'"
         d="m 445.99648,97.091676 c -1.04133,0 -1.74533,0.557333 -2.30266,1.393333 -0.29334,-0.88 -0.99734,-1.393333 -1.95067,-1.393333 -1.012,0 -1.716,0.528 -2.22933,1.305333 l -0.11734,-1.129333 h -1.15866 v 7.729334 h 1.34933 v -5.485334 c 0.51333,-0.821334 0.98267,-1.364 1.81867,-1.364 0.58666,0 1.08533,0.337333 1.08533,1.496 v 5.353334 h 1.34933 v -5.485334 c 0.528,-0.821334 0.98267,-1.364 1.81867,-1.364 0.58667,0 1.08533,0.337333 1.08533,1.496 v 5.353334 h 1.34934 v -5.544001 c 0,-1.452 -0.836,-2.361333 -2.09734,-2.361333 z" />
      <path
         id="path164"
         style="font-style:normal;font-variant:normal;font-weight:normal;font-stretch:normal;font-size:14.66666698px;font-family:'Fira Sans';-inkscape-font-specification:'Fira Sans'"
         d="m 456.56267,97.267676 h -1.34933 v 5.514664 c -0.46934,0.77734 -1.1,1.33467 -1.936,1.33467 -0.836,0 -1.188,-0.396 -1.188,-1.452 V 97.267676 H 450.74 v 5.544004 c 0,1.51066 0.80667,2.36133 2.156,2.36133 1.1,0 1.81867,-0.44 2.40534,-1.37867 l 0.10266,1.20267 h 1.15867 z" />
      <path
         id="path166"
         style="font-style:normal;font-variant:normal;font-weight:normal;font-stretch:normal;font-size:14.66666698px;font-family:'Fira Sans';-inkscape-font-specification:'Fira Sans'"
         d="m 462.98713,97.091676 c -1.012,0 -1.83333,0.528 -2.36133,1.32 l -0.11734,-1.144 h -1.15866 v 7.729334 h 1.34933 v -5.485334 c 0.51333,-0.821334 1.1,-1.364 1.96533,-1.364 0.748,0 1.21734,0.337333 1.21734,1.496 v 5.353334 h 1.34933 v -5.544001 c 0,-1.466667 -0.82133,-2.361333 -2.244,-2.361333 z" />
      <path
         id="path168"
         style="font-style:normal;font-variant:normal;font-weight:normal;font-stretch:normal;font-size:14.66666698px;font-family:'Fira Sans';-inkscape-font-specification:'Fira Sans'"
         d="m 468.60355,93.557009 c -0.55734,0 -0.93867,0.396 -0.93867,0.924 0,0.513333 0.38133,0.909333 0.93867,0.909333 0.572,0 0.95333,-0.396 0.95333,-0.909333 0,-0.528 -0.38133,-0.924 -0.95333,-0.924 z m 0.68933,3.710667 h -1.34933 v 7.729334 h 1.34933 z" />
      <path
         id="path170"
         style="font-style:normal;font-variant:normal;font-weight:normal;font-stretch:normal;font-size:14.66666698px;font-family:'Fira Sans';-inkscape-font-specification:'Fira Sans'"
         d="m 474.88455,97.091676 c -2.09734,0 -3.37334,1.642666 -3.37334,4.106664 0,2.49334 1.29067,3.97467 3.37334,3.97467 0.89466,0 1.672,-0.29333 2.36133,-0.85067 l -0.616,-0.88 c -0.58667,0.38134 -1.04133,0.58667 -1.68667,0.58667 -1.21733,0 -1.98,-0.836 -1.98,-2.86 0,-2.009334 0.76267,-2.962668 1.98,-2.962668 0.64534,0 1.12934,0.190667 1.65734,0.572 l 0.64533,-0.850666 c -0.71867,-0.601334 -1.452,-0.836 -2.36133,-0.836 z" />
      <path
         id="path172"
         style="font-style:normal;font-variant:normal;font-weight:normal;font-stretch:normal;font-size:14.66666698px;font-family:'Fira Sans';-inkscape-font-specification:'Fira Sans'"
         d="m 484.15021,103.19301 v -3.534668 c 0,-1.613333 -0.85066,-2.566666 -2.71333,-2.566666 -0.86533,0 -1.716,0.176 -2.66933,0.528 l 0.33733,0.982666 c 0.792,-0.264 1.51067,-0.410666 2.08267,-0.410666 1.07066,0 1.61333,0.410666 1.61333,1.525333 v 0.572001 h -1.188 c -2.156,0 -3.40267,0.89467 -3.40267,2.552 0,1.37867 0.924,2.332 2.464,2.332 0.93867,0 1.76,-0.352 2.30267,-1.15867 0.23467,0.76267 0.73333,1.07067 1.51067,1.15867 l 0.308,-0.93867 c -0.396,-0.14666 -0.64534,-0.36666 -0.64534,-1.04133 z m -3.168,0.968 c -0.88,0 -1.33466,-0.484 -1.33466,-1.39333 0,-1.056 0.71866,-1.584 2.14133,-1.584 h 1.012 v 1.77466 c -0.44,0.80667 -1.02667,1.20267 -1.81867,1.20267 z" />
      <path
         id="path174"
         style="font-style:normal;font-variant:normal;font-weight:normal;font-stretch:normal;font-size:14.66666698px;font-family:'Fira Sans';-inkscape-font-specification:'Fira Sans'"
         d="m 490.2944,97.091676 c -0.93866,0 -1.65733,0.586666 -2.068,1.745333 l -0.132,-1.569333 h -1.15866 v 7.729334 h 1.34933 v -4.41467 c 0.32267,-1.481331 0.88,-2.170664 1.848,-2.170664 0.27867,0 0.44,0.02933 0.67467,0.088 l 0.24933,-1.32 c -0.23467,-0.05867 -0.51333,-0.088 -0.76267,-0.088 z" />
    </g>
    <g
       id="text4567"
       style="font-style:normal;font-weight:normal;font-size:40px;line-height:1.25;font-family:sans-serif;letter-spacing:0px;word-spacing:0px;fill:#4d4d4d;fill-opacity:1;stroke:none"
       aria-label="Explorar">
      <path
         id="path177"
         style="font-style:normal;font-variant:normal;font-weight:bold;font-stretch:normal;font-size:12px;font-family:'Fira Sans';-inkscape-font-specification:'Fira Sans Bold';fill:#0597fe"
         d="m 194.04302,168.35948 h -5.1 v 8.316 h 5.1 v -1.416 h -3.132 v -2.124 h 2.556 v -1.38 h -2.556 v -1.992 h 2.928 z" />
      <path
         id="path179"
         style="font-style:normal;font-variant:normal;font-weight:bold;font-stretch:normal;font-size:12px;font-family:'Fira Sans';-inkscape-font-specification:'Fira Sans Bold';fill:#0597fe"
         d="m 198.67971,173.26748 1.74,-2.964 h -2.016 l -0.852,2.04 -0.888,-2.04 h -2.124 l 1.848,3.024 -2.052,3.348 h 2.064 l 1.08,-2.388 1.104,2.388 h 2.148 z" />
      <path
         id="path181"
         style="font-style:normal;font-variant:normal;font-weight:bold;font-stretch:normal;font-size:12px;font-family:'Fira Sans';-inkscape-font-specification:'Fira Sans Bold';fill:#0597fe"
         d="m 204.95234,170.09948 c -0.624,0 -1.308,0.252 -1.836,0.912 l -0.096,-0.708 h -1.668 v 9.036 l 1.896,-0.204 v -2.916 c 0.396,0.444 0.924,0.66 1.548,0.66 1.572,0 2.532,-1.44 2.532,-3.408 0,-2.064 -0.732,-3.372 -2.376,-3.372 z m -0.732,5.388 c -0.396,0 -0.708,-0.18 -0.972,-0.564 v -2.688 c 0.276,-0.468 0.66,-0.744 1.104,-0.744 0.624,0 1.008,0.42 1.008,2.004 0,1.428 -0.432,1.992 -1.14,1.992 z" />
      <path
         id="path183"
         style="font-style:normal;font-variant:normal;font-weight:bold;font-stretch:normal;font-size:12px;font-family:'Fira Sans';-inkscape-font-specification:'Fira Sans Bold';fill:#0597fe"
         d="m 210.21621,176.87948 c 0.456,0 0.864,-0.096 1.152,-0.216 l -0.372,-1.344 c -0.084,0.036 -0.18,0.06 -0.312,0.06 -0.228,0 -0.324,-0.132 -0.324,-0.396 v -7.416 l -1.896,0.204 v 7.284 c 0,1.164 0.648,1.824 1.752,1.824 z" />
      <path
         id="path185"
         style="font-style:normal;font-variant:normal;font-weight:bold;font-stretch:normal;font-size:12px;font-family:'Fira Sans';-inkscape-font-specification:'Fira Sans Bold';fill:#0597fe"
         d="m 214.7764,170.09948 c -1.944,0 -3.12,1.344 -3.12,3.384 0,2.148 1.188,3.396 3.12,3.396 1.944,0 3.12,-1.344 3.12,-3.384 0,-2.148 -1.176,-3.396 -3.12,-3.396 z m 0,1.392 c 0.768,0 1.152,0.588 1.152,2.004 0,1.38 -0.384,1.992 -1.152,1.992 -0.768,0 -1.152,-0.588 -1.152,-2.004 0,-1.38 0.384,-1.992 1.152,-1.992 z" />
      <path
         id="path187"
         style="font-style:normal;font-variant:normal;font-weight:bold;font-stretch:normal;font-size:12px;font-family:'Fira Sans';-inkscape-font-specification:'Fira Sans Bold';fill:#0597fe"
         d="m 222.48021,170.12348 c -0.732,0 -1.356,0.528 -1.644,1.416 l -0.156,-1.236 h -1.656 v 6.372 h 1.896 v -3.156 c 0.204,-0.972 0.528,-1.56 1.32,-1.56 0.216,0 0.372,0.036 0.576,0.084 l 0.3,-1.836 c -0.204,-0.06 -0.396,-0.084 -0.636,-0.084 z" />
      <path
         id="path189"
         style="font-style:normal;font-variant:normal;font-weight:bold;font-stretch:normal;font-size:12px;font-family:'Fira Sans';-inkscape-font-specification:'Fira Sans Bold';fill:#0597fe"
         d="m 228.47102,174.82748 v -2.472 c 0,-1.476 -0.792,-2.256 -2.64,-2.256 -0.72,0 -1.596,0.168 -2.4,0.468 l 0.432,1.248 c 0.636,-0.216 1.26,-0.336 1.668,-0.336 0.78,0 1.08,0.228 1.08,0.984 v 0.276 h -0.648 c -1.932,0 -2.988,0.756 -2.988,2.148 0,1.164 0.804,1.992 2.076,1.992 0.756,0 1.464,-0.252 1.92,-0.96 0.288,0.636 0.78,0.864 1.536,0.924 l 0.396,-1.236 c -0.3,-0.108 -0.432,-0.288 -0.432,-0.78 z m -2.868,0.696 c -0.468,0 -0.744,-0.3 -0.744,-0.804 0,-0.636 0.42,-0.936 1.284,-0.936 h 0.468 v 1.128 c -0.228,0.384 -0.564,0.612 -1.008,0.612 z" />
      <path
         id="path191"
         style="font-style:normal;font-variant:normal;font-weight:bold;font-stretch:normal;font-size:12px;font-family:'Fira Sans';-inkscape-font-specification:'Fira Sans Bold';fill:#0597fe"
         d="m 233.44896,170.12348 c -0.732,0 -1.356,0.528 -1.644,1.416 l -0.156,-1.236 h -1.656 v 6.372 h 1.896 v -3.156 c 0.204,-0.972 0.528,-1.56 1.32,-1.56 0.216,0 0.372,0.036 0.576,0.084 l 0.3,-1.836 c -0.204,-0.06 -0.396,-0.084 -0.636,-0.084 z" />
    </g>
    <path
       style="fill:none;stroke:#000000;stroke-width:1.20000005;stroke-linecap:butt;stroke-linejoin:miter;stroke-miterlimit:4;stroke-dasharray:none;stroke-opacity:1;marker-end:url(#Arrow2Mend)"
       d="m 108.06649,98.896716 h 13.78379"
       id="path4575" />
    <path
       id="path4859"
       d="m 188.06871,98.896716 h 13.79438"
       style="fill:none;stroke:#000000;stroke-width:1.20000005;stroke-linecap:butt;stroke-linejoin:miter;stroke-miterlimit:4;stroke-dasharray:none;stroke-opacity:1;marker-end:url(#marker4863)" />
    <path
       style="fill:none;stroke:#000000;stroke-width:1.20000005;stroke-linecap:butt;stroke-linejoin:miter;stroke-miterlimit:4;stroke-dasharray:none;stroke-opacity:1;marker-end:url(#marker5888)"
       d="m 253.82837,84.08997 c 9.75098,-8.660838 18.49385,-17.211899 42.02725,-22.267332"
       id="path5884" />
    <path
       style="fill:none;stroke:#000000;stroke-width:1.20000005;stroke-linecap:butt;stroke-linejoin:miter;stroke-miterlimit:4;stroke-dasharray:none;stroke-opacity:1;marker-end:url(#marker7064)"
       d="m 298.68397,148.72885 c -31.2991,5.72311 -57.67444,3.74131 -55.45104,-30.07731"
       id="path7060" />
    <path
       style="fill:none;stroke:#000000;stroke-width:1.20000005;stroke-linecap:butt;stroke-linejoin:miter;stroke-miterlimit:4;stroke-dasharray:none;stroke-opacity:1;marker-end:url(#marker8276)"
       d="m 355.48255,69.963092 c 11.59167,13.040714 10.13511,32.526008 -8.06957,53.637638"
       id="path8272" />
  </g>
</svg>
